<svg width="26" height="24" viewBox="0 0 26 24" fill="none" xmlns="http://www.w3.org/2000/svg">
<path d="M13 0.460823C5.8175 0.460823 0 5.74669 0 12.2728C0 17.4996 3.72125 21.9143 8.88875 23.4794C9.53875 23.5828 9.7825 23.2284 9.7825 22.9184C9.7825 22.6378 9.76625 21.7076 9.76625 20.7184C6.5 21.2647 5.655 19.9949 5.395 19.3305C5.24875 18.9909 4.615 17.9426 4.0625 17.662C3.6075 17.4406 2.9575 16.8942 4.04625 16.8795C5.07 16.8647 5.80125 17.7359 6.045 18.0902C7.215 19.8768 9.08375 19.3748 9.83125 19.0647C9.945 18.2969 10.2863 17.7801 10.66 17.4848C7.7675 17.1895 4.745 16.1708 4.745 11.6527C4.745 10.3681 5.24875 9.30505 6.0775 8.47821C5.9475 8.18291 5.4925 6.97218 6.2075 5.34803C6.2075 5.34803 7.29625 5.03797 9.7825 6.55876C10.8225 6.29299 11.9275 6.16011 13.0325 6.16011C14.1375 6.16011 15.2425 6.29299 16.2825 6.55876C18.7688 5.0232 19.8575 5.34803 19.8575 5.34803C20.5725 6.97218 20.1175 8.18291 19.9875 8.47821C20.8162 9.30505 21.32 10.3534 21.32 11.6527C21.32 16.1855 18.2812 17.1895 15.3888 17.4848C15.86 17.854 16.2663 18.5627 16.2663 19.6701C16.2663 21.2499 16.25 22.5197 16.25 22.9184C16.25 23.2284 16.4937 23.5975 17.1438 23.4794C19.7246 22.688 21.9673 21.181 23.556 19.1707C25.1448 17.1603 25.9995 14.7478 26 12.2728C26 5.74669 20.1825 0.460823 13 0.460823Z" fill="#222D65"/>
</svg>
