<svg width="27" height="24" viewBox="0 0 27 24" fill="none" xmlns="http://www.w3.org/2000/svg">
<path d="M0.172974 2.11115C0.172974 1.19958 1.03696 0.460823 2.10299 0.460823H24.524C25.5901 0.460823 26.4541 1.19958 26.4541 2.11115V21.8517C26.4541 22.7632 25.5901 23.502 24.524 23.502H2.10299C1.03696 23.502 0.172974 22.7632 0.172974 21.8517V2.11115ZM8.29218 19.7492V9.34463H4.34838V19.7492H8.29218ZM6.3211 7.92328C7.69593 7.92328 8.55171 7.12548 8.55171 6.12607C8.52707 5.10506 7.69758 4.32886 6.34738 4.32886C4.99719 4.32886 4.11514 5.1065 4.11514 6.12607C4.11514 7.12548 4.97091 7.92328 6.29482 7.92328H6.3211ZM14.3828 19.7492V13.9385C14.3828 13.6274 14.4091 13.3164 14.5142 13.0946C14.7984 12.4739 15.4472 11.8302 16.5379 11.8302C17.9653 11.8302 18.5352 12.7835 18.5352 14.1833V19.7492H22.479V13.7815C22.479 10.5845 20.5342 9.09838 17.939 9.09838C15.8464 9.09838 14.9084 10.1064 14.3828 10.8164V10.8524H14.3565C14.3653 10.8404 14.374 10.8284 14.3828 10.8164V9.34463H10.4407C10.4899 10.321 10.4407 19.7492 10.4407 19.7492H14.3828Z" fill="#222D65"/>
</svg>
